<svg width="50" height="50" viewBox="0 0 50 50" fill="none" xmlns="http://www.w3.org/2000/svg">
<rect width="50" height="50" rx="25" fill="#F2FFFA"/>
<path d="M19.6875 13.125C19.6875 12.6072 19.2678 12.1875 18.75 12.1875C18.2322 12.1875 17.8125 12.6072 17.8125 13.125V15.0991C16.0133 15.2431 14.8322 15.5967 13.9645 16.4645C13.0967 17.3322 12.7431 18.5133 12.5991 20.3125H37.4009C37.2569 18.5133 36.9033 17.3322 36.0355 16.4645C35.1678 15.5967 33.9867 15.2431 32.1875 15.0991V13.125C32.1875 12.6072 31.7678 12.1875 31.25 12.1875C30.7322 12.1875 30.3125 12.6072 30.3125 13.125V15.0161C29.4809 15 28.5488 15 27.5 15H22.5C21.4512 15 20.5191 15 19.6875 15.0161V13.125Z" fill="#01E08F"/>
<path fill-rule="evenodd" clip-rule="evenodd" d="M12.5 25C12.5 23.9512 12.5 23.0191 12.5161 22.1875H37.4839C37.5 23.0191 37.5 23.9512 37.5 25V27.5C37.5 32.214 37.5 34.5711 36.0355 36.0355C34.5711 37.5 32.214 37.5 27.5 37.5H22.5C17.786 37.5 15.4289 37.5 13.9645 36.0355C12.5 34.5711 12.5 32.214 12.5 27.5V25ZM31.25 27.5C31.9404 27.5 32.5 26.9404 32.5 26.25C32.5 25.5596 31.9404 25 31.25 25C30.5596 25 30 25.5596 30 26.25C30 26.9404 30.5596 27.5 31.25 27.5ZM31.25 32.5C31.9404 32.5 32.5 31.9404 32.5 31.25C32.5 30.5596 31.9404 30 31.25 30C30.5596 30 30 30.5596 30 31.25C30 31.9404 30.5596 32.5 31.25 32.5ZM26.25 26.25C26.25 26.9404 25.6904 27.5 25 27.5C24.3096 27.5 23.75 26.9404 23.75 26.25C23.75 25.5596 24.3096 25 25 25C25.6904 25 26.25 25.5596 26.25 26.25ZM26.25 31.25C26.25 31.9404 25.6904 32.5 25 32.5C24.3096 32.5 23.75 31.9404 23.75 31.25C23.75 30.5596 24.3096 30 25 30C25.6904 30 26.25 30.5596 26.25 31.25ZM18.75 27.5C19.4404 27.5 20 26.9404 20 26.25C20 25.5596 19.4404 25 18.75 25C18.0596 25 17.5 25.5596 17.5 26.25C17.5 26.9404 18.0596 27.5 18.75 27.5ZM18.75 32.5C19.4404 32.5 20 31.9404 20 31.25C20 30.5596 19.4404 30 18.75 30C18.0596 30 17.5 30.5596 17.5 31.25C17.5 31.9404 18.0596 32.5 18.75 32.5Z" fill="#01E08F"/>
</svg>
