<svg width="50" height="50" viewBox="0 0 50 50" fill="none" xmlns="http://www.w3.org/2000/svg">
<rect width="50" height="50" rx="25" fill="#F2FFFA"/>
<path fill-rule="evenodd" clip-rule="evenodd" d="M25.9401 14.9691C25.9401 15.4875 25.5192 15.9079 25 15.9079C24.4808 15.9079 24.0599 15.4875 24.0599 14.9691V12.5C21.3053 12.704 18.7985 13.7969 16.8262 15.4925L18.7707 17.4343C19.1378 17.8009 19.1378 18.3953 18.7707 18.762C18.4035 19.1286 17.8083 19.1286 17.4411 18.762L15.4967 16.8202C13.7987 18.7898 12.7042 21.2931 12.5 24.0439H14.9722C15.4914 24.0439 15.9123 24.4642 15.9123 24.9827C15.9123 25.5011 15.4914 25.9215 14.9722 25.9215H12.5C12.7042 28.6722 13.7987 31.1755 15.4967 33.1451L17.4411 31.2034C17.8083 30.8367 18.4035 30.8367 18.7707 31.2034C19.1378 31.57 19.1378 32.1644 18.7707 32.531L16.8262 34.4728C19.0208 36.3595 21.877 37.5 25 37.5C28.123 37.5 30.9792 36.3595 33.1738 34.4728L31.2293 32.531C30.8622 32.1644 30.8622 31.57 31.2293 31.2034C31.5965 30.8367 32.1917 30.8367 32.5589 31.2034L34.5033 33.1451C36.2013 31.1755 37.2958 28.6722 37.5 25.9215H35.0275C34.5083 25.9215 34.0874 25.5011 34.0874 24.9827C34.0874 24.4642 34.5083 24.0439 35.0275 24.0439H37.5C37.2958 21.2931 36.2013 18.7898 34.5033 16.8202L32.5589 18.762C32.1917 19.1286 31.5965 19.1286 31.2293 18.762C30.8622 18.3953 30.8622 17.8009 31.2293 17.4343L33.1738 15.4925C31.2015 13.7969 28.6947 12.704 25.9401 12.5V14.9691ZM25.0347 30.0243C22.9579 30.0243 21.2743 28.343 21.2743 26.2691C21.2743 25.4802 21.8184 24.3859 22.4927 23.3326C23.501 21.7576 24.0051 20.9701 25.0347 20.9701C26.0643 20.9701 26.5685 21.7576 27.5768 23.3326C28.251 24.3859 28.7951 25.4802 28.7951 26.2691C28.7951 28.343 27.1115 30.0243 25.0347 30.0243Z" fill="#01E08F"/>
</svg>
