<svg width="165" height="40" viewBox="0 0 165 40" fill="none" xmlns="http://www.w3.org/2000/svg">
<path d="M69.1242 21.836L69.5442 17.944H69.3762L68.1722 21.08L64.0002 28.388H62.7682L58.3722 21.052L57.1402 17.944H57.0002L57.5602 21.808V32H53.9202V12.4H57.4202L62.6562 21.36L63.5802 23.6H63.6922L64.5322 21.304L69.4882 12.4H72.9602V32H69.1242V21.836ZM76.5388 18H80.1788V32H76.5388V18ZM76.0068 14.052C76.0068 13.5107 76.2028 13.0533 76.5948 12.68C77.0054 12.288 77.5654 12.092 78.2748 12.092C78.9841 12.092 79.5534 12.288 79.9828 12.68C80.4308 13.0533 80.6548 13.5107 80.6548 14.052C80.6548 14.5933 80.4308 15.0507 79.9828 15.424C79.5534 15.7787 78.9841 15.956 78.2748 15.956C77.5654 15.956 77.0054 15.7787 76.5948 15.424C76.2028 15.0507 76.0068 14.5933 76.0068 14.052ZM92.3183 32V24.048C92.3183 22.9093 92.1503 22.088 91.8143 21.584C91.497 21.08 90.9463 20.828 90.1623 20.828C89.4716 20.828 88.8836 21.0333 88.3983 21.444C87.9316 21.836 87.5956 22.3307 87.3903 22.928V32H83.7503V18H86.6343L87.0543 19.848H87.1663C87.5956 19.2507 88.165 18.728 88.8743 18.28C89.5836 17.832 90.4983 17.608 91.6183 17.608C92.309 17.608 92.925 17.7013 93.4663 17.888C94.0076 18.0747 94.465 18.3827 94.8383 18.812C95.2116 19.2413 95.4916 19.8293 95.6783 20.576C95.865 21.304 95.9583 22.2093 95.9583 23.292V32H92.3183ZM110.908 27.072C110.908 27.856 110.917 28.64 110.936 29.424C110.955 30.208 111.039 31.076 111.188 32.028H108.584L108.08 30.208H107.968C107.595 30.8613 107.053 31.3933 106.344 31.804C105.653 32.196 104.832 32.392 103.88 32.392C102.125 32.392 100.763 31.8133 99.7921 30.656C98.8214 29.4987 98.3361 27.688 98.3361 25.224C98.3361 22.8347 98.8774 20.9773 99.9601 19.652C101.043 18.3267 102.629 17.664 104.72 17.664C105.299 17.664 105.775 17.7013 106.148 17.776C106.521 17.832 106.895 17.9347 107.268 18.084V12.4H110.908V27.072ZM104.72 29.312C105.429 29.312 105.989 29.144 106.4 28.808C106.811 28.4533 107.1 27.9493 107.268 27.296V21.36C107.007 21.1547 106.717 21.0053 106.4 20.912C106.083 20.8 105.672 20.744 105.168 20.744C104.141 20.744 103.367 21.0893 102.844 21.78C102.34 22.4707 102.088 23.656 102.088 25.336C102.088 26.5307 102.293 27.492 102.704 28.22C103.133 28.948 103.805 29.312 104.72 29.312ZM127.458 31.188C126.861 31.6173 126.095 31.9253 125.162 32.112C124.247 32.2987 123.305 32.392 122.334 32.392C121.158 32.392 120.038 32.2147 118.974 31.86C117.929 31.4867 117.005 30.8987 116.202 30.096C115.399 29.2747 114.755 28.22 114.27 26.932C113.803 25.6253 113.57 24.048 113.57 22.2C113.57 20.2773 113.831 18.672 114.354 17.384C114.895 16.0773 115.586 15.032 116.426 14.248C117.285 13.4453 118.237 12.876 119.282 12.54C120.327 12.1853 121.373 12.008 122.418 12.008C123.538 12.008 124.481 12.0827 125.246 12.232C126.03 12.3813 126.674 12.5587 127.178 12.764L126.422 16.012C125.993 15.8067 125.479 15.6573 124.882 15.564C124.303 15.4707 123.594 15.424 122.754 15.424C121.205 15.424 119.954 15.9747 119.002 17.076C118.069 18.1773 117.602 19.8853 117.602 22.2C117.602 23.208 117.714 24.132 117.938 24.972C118.162 25.7933 118.498 26.5027 118.946 27.1C119.413 27.6787 119.982 28.136 120.654 28.472C121.345 28.7893 122.138 28.948 123.034 28.948C123.874 28.948 124.583 28.864 125.162 28.696C125.741 28.528 126.245 28.3133 126.674 28.052L127.458 31.188ZM142.23 32H129.826V12.4H133.662V28.584H142.23V32ZM144.433 18H148.073V32H144.433V18ZM143.901 14.052C143.901 13.5107 144.097 13.0533 144.489 12.68C144.9 12.288 145.46 12.092 146.169 12.092C146.879 12.092 147.448 12.288 147.877 12.68C148.325 13.0533 148.549 13.5107 148.549 14.052C148.549 14.5933 148.325 15.0507 147.877 15.424C147.448 15.7787 146.879 15.956 146.169 15.956C145.46 15.956 144.9 15.7787 144.489 15.424C144.097 15.0507 143.901 14.5933 143.901 14.052ZM154.809 24.832L150.609 18H154.949L156.769 20.996L157.553 22.956L158.393 20.996L160.297 18H164.245L160.017 24.72L164.525 32H160.297L158.141 28.64L157.301 26.568L156.405 28.64L154.249 32H150.273L154.809 24.832Z" fill="#01E08F"/>
<rect width="42" height="40" rx="10" fill="#01E08F"/>
<path d="M33.6001 10.2859L25.7073 27.3308L25.2859 28.2403L24.7907 29.3126L24.742 29.32L22.3444 24.6592L22.7727 23.7289L26.0581 16.6255L33.6001 10.2859Z" fill="white"/>
<g style="mix-blend-mode:multiply" opacity="0.16">
<g style="mix-blend-mode:multiply" opacity="0.16">
<path d="M25.7073 27.3306L24.7907 29.3121L24.742 29.3196L22.3444 24.659L22.7725 23.7286C23.5179 24.6368 24.7729 26.1767 25.7073 27.3306Z" fill="#01E08F"/>
</g>
</g>
<path d="M20.579 21.2302L24.7419 29.3186L20.3588 30.0507L18.3182 26.0858L20.579 21.2302Z" fill="#FDFEFF"/>
<g style="mix-blend-mode:screen" opacity="0.3">
<g style="mix-blend-mode:screen" opacity="0.3">
<path d="M33.5998 10.2859L25.7071 27.3308L25.2857 28.2403C25.1075 28.6013 24.9245 28.9624 24.7424 29.3198C25.0862 28.5089 25.4378 27.7024 25.7903 26.8962C26.1389 26.0886 26.4933 25.285 26.8536 24.4853C27.5729 22.8854 28.2803 21.2736 29.0124 19.6809C29.7367 18.0846 30.475 16.4989 31.2084 14.9095C31.8121 13.6232 32.4165 12.3364 33.0217 11.0493C32.6173 11.3854 32.2135 11.7158 31.8037 12.0433L29.8971 13.586C29.2625 14.1044 28.6251 14.6143 27.9847 15.1159C27.345 15.6238 26.7052 16.1317 26.0587 16.6266L33.5998 10.2859Z" fill="white"/>
</g>
</g>
<g style="mix-blend-mode:screen" opacity="0.3">
<g style="mix-blend-mode:screen" opacity="0.3">
<path d="M20.579 21.2302L24.4057 28.6657C24.4379 28.7393 24.4685 28.8104 24.4987 28.8857C24.3129 28.5871 24.1354 28.2817 23.9543 27.9753C23.7768 27.6699 23.5936 27.3644 23.4221 27.0547C23.2452 26.7451 23.0718 26.4362 22.8988 26.123C22.7293 25.8108 22.5559 25.502 22.3871 25.1854C22.0489 24.5559 21.7157 23.9231 21.3874 23.287C21.1127 22.7649 20.8472 22.2317 20.5807 21.704C20.2482 22.389 19.9099 23.0709 19.5656 23.7497C19.3631 24.1437 19.1638 24.5386 18.9517 24.9255C18.7431 25.3143 18.5371 25.7064 18.3189 26.0871L20.579 21.2302Z" fill="white"/>
</g>
</g>
<g style="mix-blend-mode:screen" opacity="0.15">
<g style="mix-blend-mode:screen" opacity="0.15">
<path d="M26.4674 16.9834L31.76 12.6747L25.7488 25.7869L26.4674 16.9834Z" fill="white"/>
</g>
</g>
<g style="mix-blend-mode:screen" opacity="0.15">
<g style="mix-blend-mode:screen" opacity="0.15">
<path d="M18.727 26.098L20.6024 22.6582L23.8595 28.6324L18.727 26.098Z" fill="white"/>
</g>
</g>
<path d="M9.23999 30.8298L17.1327 13.786L17.554 12.8765L18.0493 11.8043L18.098 11.7968L20.4961 16.4562L20.0677 17.3863L16.7808 24.4888L9.23999 30.8298Z" fill="#FBFBFB"/>
<g style="mix-blend-mode:multiply" opacity="0.16">
<g style="mix-blend-mode:multiply" opacity="0.16">
<path d="M17.132 13.785L18.0486 11.8033L18.0973 11.7958L20.4953 16.4552L20.067 17.3856C19.3221 16.4761 18.0664 14.9375 17.132 13.785Z" fill="#01E08F"/>
</g>
</g>
<path d="M22.2599 19.884L18.097 11.7957L22.4799 11.0636L24.5205 15.0285L22.2599 19.884Z" fill="#FEFEFE"/>
<g style="mix-blend-mode:multiply" opacity="0.16">
<g style="mix-blend-mode:multiply" opacity="0.16">
<path d="M9.23999 30.8298L17.1327 13.7862L17.554 12.8767C17.7322 12.5157 17.915 12.1547 18.0973 11.797C17.7533 12.6079 17.4019 13.4144 17.0494 14.2209C16.7009 15.0283 16.3464 15.8318 15.9861 16.6314C15.2668 18.2313 14.5594 19.8432 13.8271 21.4358C13.103 23.0321 12.3648 24.6179 11.6311 26.2072C11.0274 27.4936 10.4231 28.7803 9.81805 30.0674C10.2225 29.7314 10.6262 29.4009 11.0361 29.0738L12.9426 27.5308C13.577 27.0124 14.2145 26.5024 14.855 26.0009C15.4948 25.4929 16.1345 24.985 16.7811 24.4901L9.23999 30.8298Z" fill="#01E08F"/>
</g>
</g>
<g style="mix-blend-mode:multiply" opacity="0.3">
<g style="mix-blend-mode:multiply" opacity="0.3">
<path d="M22.26 19.884L18.4324 12.4485C18.4004 12.3749 18.3696 12.3038 18.3396 12.2285C18.5254 12.5271 18.703 12.8325 18.8829 13.1389C19.0604 13.4443 19.2434 13.7498 19.4151 14.0595C19.592 14.3691 19.7654 14.6779 19.9384 14.9909C20.1077 15.3034 20.2813 15.6122 20.45 15.9288C20.7884 16.5583 21.1216 17.1911 21.4496 17.8272C21.7243 18.3493 21.9898 18.8825 22.2563 19.4102C22.5888 18.7251 22.927 18.0433 23.2711 17.3645C23.4739 16.9705 23.6732 16.5756 23.8851 16.1887C24.0969 15.8018 24.2999 15.4078 24.5179 15.027L22.26 19.884Z" fill="#01E08F"/>
</g>
</g>
<g style="mix-blend-mode:screen" opacity="0.3">
<g style="mix-blend-mode:screen" opacity="0.3">
<path d="M16.3713 24.1307L11.079 28.4395L17.09 15.3273C17.09 15.3273 17.0872 15.4919 16.3713 24.1307Z" fill="white"/>
</g>
</g>
<g style="mix-blend-mode:screen" opacity="0.2">
<g style="mix-blend-mode:screen" opacity="0.2">
<path d="M24.1116 15.016L22.2353 18.4557L18.9782 12.4816L24.1116 15.016Z" fill="#FFFBFB"/>
</g>
</g>
</svg>
