<svg width="25" height="25" viewBox="0 0 25 25" fill="none" xmlns="http://www.w3.org/2000/svg">
<rect width="25" height="25" rx="12.5" fill="white"/>
<path d="M12.502 6.35191C14.506 6.35191 14.7413 6.36084 15.5334 6.39657C16.2659 6.42933 16.6619 6.55142 16.927 6.65564C17.2783 6.79261 17.5285 6.95341 17.7905 7.21546C18.0526 7.4775 18.2163 7.72763 18.3503 8.07901C18.4516 8.34403 18.5766 8.74007 18.6094 9.4726C18.6451 10.2647 18.6541 10.4999 18.6541 12.504C18.6541 14.508 18.6451 14.7432 18.6094 15.5353C18.5766 16.2679 18.4545 16.6639 18.3503 16.9289C18.2134 17.2803 18.0526 17.5304 17.7905 17.7925C17.5285 18.0545 17.2783 18.2183 16.927 18.3523C16.6619 18.4535 16.2659 18.5786 15.5334 18.6114C14.7413 18.6471 14.506 18.656 12.502 18.656C10.498 18.656 10.2627 18.6471 9.47063 18.6114C8.73809 18.5786 8.34205 18.4565 8.07703 18.3523C7.72565 18.2153 7.47552 18.0545 7.21348 17.7925C6.95143 17.5304 6.78766 17.2803 6.65366 16.9289C6.55241 16.6639 6.42735 16.2679 6.39459 15.5353C6.35886 14.7432 6.34992 14.508 6.34992 12.504C6.34992 10.4999 6.35886 10.2647 6.39459 9.4726C6.42735 8.74007 6.54943 8.34403 6.65366 8.07901C6.79063 7.72763 6.95143 7.4775 7.21348 7.21546C7.47552 6.95341 7.72565 6.78964 8.07703 6.65564C8.34205 6.55439 8.73809 6.42933 9.47063 6.39657C10.2627 6.35786 10.5009 6.35191 12.502 6.35191ZM12.502 5C10.4652 5 10.2091 5.00893 9.40809 5.04467C8.61005 5.0804 8.06512 5.20844 7.58868 5.39307C7.09437 5.58364 6.67748 5.84271 6.26059 6.25959C5.8437 6.67648 5.58762 7.09635 5.39406 7.58768C5.20944 8.06412 5.0814 8.60905 5.04566 9.41007C5.00993 10.2081 5.001 10.4642 5.001 12.501C5.001 14.5378 5.00993 14.7939 5.04566 15.5949C5.0814 16.3929 5.20944 16.9379 5.39406 17.4173C5.58464 17.9116 5.8437 18.3285 6.26059 18.7454C6.67748 19.1623 7.09734 19.4183 7.58868 19.6119C8.06512 19.7965 8.61005 19.9246 9.41107 19.9603C10.2121 19.996 10.4652 20.005 12.505 20.005C14.5447 20.005 14.7979 19.996 15.5989 19.9603C16.3969 19.9246 16.9418 19.7965 17.4213 19.6119C17.9156 19.4213 18.3325 19.1623 18.7494 18.7454C19.1662 18.3285 19.4223 17.9086 19.6159 17.4173C19.8005 16.9408 19.9285 16.3959 19.9643 15.5949C20 14.7939 20.0089 14.5408 20.0089 12.501C20.0089 10.4612 20 10.2081 19.9643 9.40709C19.9285 8.60905 19.8005 8.06412 19.6159 7.5847C19.4253 7.09039 19.1662 6.6735 18.7494 6.25662C18.3325 5.83973 17.9126 5.58364 17.4213 5.39009C16.9448 5.20547 16.3999 5.07742 15.5989 5.04169C14.7949 5.00893 14.5388 5 12.502 5Z" fill="#011E6E"/>
<path d="M12.502 6.35191C14.506 6.35191 14.7413 6.36084 15.5334 6.39657C16.2659 6.42933 16.6619 6.55142 16.927 6.65564C17.2783 6.79261 17.5285 6.95341 17.7905 7.21546C18.0526 7.4775 18.2163 7.72763 18.3503 8.07901C18.4516 8.34403 18.5766 8.74007 18.6094 9.4726C18.6451 10.2647 18.6541 10.4999 18.6541 12.504C18.6541 14.508 18.6451 14.7432 18.6094 15.5353C18.5766 16.2679 18.4545 16.6639 18.3503 16.9289C18.2134 17.2803 18.0526 17.5304 17.7905 17.7925C17.5285 18.0545 17.2783 18.2183 16.927 18.3523C16.6619 18.4535 16.2659 18.5786 15.5334 18.6114C14.7413 18.6471 14.506 18.656 12.502 18.656C10.498 18.656 10.2627 18.6471 9.47063 18.6114C8.73809 18.5786 8.34205 18.4565 8.07703 18.3523C7.72565 18.2153 7.47552 18.0545 7.21348 17.7925C6.95143 17.5304 6.78766 17.2803 6.65366 16.9289C6.55241 16.6639 6.42735 16.2679 6.39459 15.5353C6.35886 14.7432 6.34992 14.508 6.34992 12.504C6.34992 10.4999 6.35886 10.2647 6.39459 9.4726C6.42735 8.74007 6.54943 8.34403 6.65366 8.07901C6.79063 7.72763 6.95143 7.4775 7.21348 7.21546C7.47552 6.95341 7.72565 6.78964 8.07703 6.65564C8.34205 6.55439 8.73809 6.42933 9.47063 6.39657C10.2627 6.35786 10.5009 6.35191 12.502 6.35191Z" fill="#011E6E"/>
<path d="M12.502 8.65063C10.3759 8.65063 8.64876 10.3748 8.64876 12.5039C8.64876 14.633 10.3729 16.3571 12.502 16.3571C14.6311 16.3571 16.3552 14.633 16.3552 12.5039C16.3552 10.3748 14.6311 8.65063 12.502 8.65063ZM12.502 15.0022C11.1203 15.0022 10.0007 13.8826 10.0007 12.5009C10.0007 11.1192 11.1203 9.99956 12.502 9.99956C13.8837 9.99956 15.0033 11.1192 15.0033 12.5009C15.0033 13.8826 13.8837 15.0022 12.502 15.0022Z" fill="white"/>
<path d="M16.5071 9.39525C17.0037 9.39525 17.4064 8.99263 17.4064 8.49597C17.4064 7.9993 17.0037 7.59668 16.5071 7.59668C16.0104 7.59668 15.6078 7.9993 15.6078 8.49597C15.6078 8.99263 16.0104 9.39525 16.5071 9.39525Z" fill="white"/>
</svg>
