<svg width="25" height="25" viewBox="0 0 25 25" fill="none" xmlns="http://www.w3.org/2000/svg">
<rect width="25" height="25" rx="12.5" fill="white"/>
<path d="M10.2125 19.0938C15.7562 19.0938 18.7875 14.5 18.7875 10.5188C18.7875 10.3875 18.7875 10.2563 18.7812 10.1313C19.3688 9.70625 19.8813 9.175 20.2875 8.56875C19.75 8.80625 19.1687 8.96875 18.5562 9.04375C19.1812 8.66875 19.6563 8.08125 19.8813 7.375C19.3 7.71875 18.6562 7.96875 17.9688 8.10625C17.4187 7.51875 16.6375 7.15625 15.7688 7.15625C14.1063 7.15625 12.7563 8.50625 12.7563 10.1688C12.7563 10.4063 12.7812 10.6375 12.8375 10.8563C10.3313 10.7313 8.1125 9.53125 6.625 7.70625C6.36875 8.15 6.21875 8.66875 6.21875 9.21875C6.21875 10.2625 6.75 11.1875 7.5625 11.725C7.06875 11.7125 6.60625 11.575 6.2 11.35C6.2 11.3625 6.2 11.375 6.2 11.3875C6.2 12.85 7.2375 14.0625 8.61875 14.3438C8.36875 14.4125 8.1 14.45 7.825 14.45C7.63125 14.45 7.44375 14.4313 7.25625 14.3938C7.6375 15.5938 8.75 16.4625 10.0688 16.4875C9.0375 17.2938 7.7375 17.775 6.325 17.775C6.08125 17.775 5.84375 17.7625 5.60625 17.7313C6.925 18.5938 8.5125 19.0938 10.2125 19.0938Z" fill="#011E6E"/>
</svg>
