<svg width="50" height="50" viewBox="0 0 50 50" fill="none" xmlns="http://www.w3.org/2000/svg">
<rect width="50" height="50" rx="25" fill="#F2FFFA"/>
<path d="M28.75 17.5C28.75 20.2614 26.5114 22.5 23.75 22.5C20.9886 22.5 18.75 20.2614 18.75 17.5C18.75 14.7386 20.9886 12.5 23.75 12.5C26.5114 12.5 28.75 14.7386 28.75 17.5Z" fill="#01E08F"/>
<path d="M33.75 31.875C33.75 34.9816 33.75 37.5 23.75 37.5C13.75 37.5 13.75 34.9816 13.75 31.875C13.75 28.7684 18.2272 26.25 23.75 26.25C29.2728 26.25 33.75 28.7684 33.75 31.875Z" fill="#01E08F"/>
<path d="M36.9507 21.2478C37.2947 20.8609 37.2598 20.2683 36.8728 19.9243C36.4859 19.5803 35.8933 19.6152 35.5493 20.0022L32.8427 23.0471L31.8772 22.1782C31.4923 21.8318 30.8995 21.863 30.5532 22.2478C30.2068 22.6327 30.238 23.2255 30.6228 23.5718L32.2895 25.0718C32.4751 25.2388 32.7196 25.3249 32.9688 25.311C33.2181 25.2972 33.4515 25.1844 33.6174 24.9978L36.9507 21.2478Z" fill="#01E08F"/>
</svg>
