<svg width="50" height="50" viewBox="0 0 50 50" fill="none" xmlns="http://www.w3.org/2000/svg">
<rect width="50" height="50" rx="25" fill="#F2FFFA"/>
<ellipse cx="21.2512" cy="17.5" rx="5" ry="5" fill="#01E08F"/>
<ellipse cx="21.2512" cy="31.2512" rx="8.75" ry="5" fill="#01E08F"/>
<path d="M36.2495 31.2506C36.2495 33.3216 33.7051 35.0005 30.5985 35.0005C31.5138 34.0001 32.1431 32.7444 32.1431 31.2523C32.1431 29.7585 31.5123 28.5016 30.5953 27.5006C33.7019 27.5006 36.2495 29.1795 36.2495 31.2506Z" fill="#01E08F"/>
<path d="M32.4995 17.5009C32.4995 19.572 30.8206 21.2509 28.7495 21.2509C28.2979 21.2509 27.865 21.1711 27.464 21.0248C28.0553 19.9846 28.3931 18.7815 28.3931 17.4995C28.3931 16.2185 28.0558 15.0162 27.4653 13.9766C27.8659 13.8306 28.2984 13.7509 28.7495 13.7509C30.8206 13.7509 32.4995 15.4298 32.4995 17.5009Z" fill="#01E08F"/>
</svg>
