<svg width="25" height="25" viewBox="0 0 25 25" fill="none" xmlns="http://www.w3.org/2000/svg">
<rect width="25" height="25" rx="12.5" fill="white"/>
<path d="M4.9176 19.7708L5.98941 15.8788C5.32677 14.7364 4.97916 13.4426 4.98278 12.12C4.98278 7.97572 8.372 4.6062 12.5325 4.6062C14.553 4.6062 16.4504 5.38822 17.8734 6.8081C19.3001 8.22798 20.0858 10.1163 20.0822 12.1236C20.0822 16.268 16.693 19.6375 12.5289 19.6375H12.5253C11.2615 19.6375 10.0195 19.3204 8.91515 18.7221L4.9176 19.7708ZM9.10706 17.3635L9.33518 17.5005C10.2984 18.0698 11.4028 18.369 12.5289 18.3726H12.5325C15.9905 18.3726 18.8076 15.5724 18.8076 12.1272C18.8076 10.4587 18.1559 8.89107 16.9718 7.70904C15.7877 6.527 14.209 5.87833 12.5325 5.87833C9.07447 5.87472 6.25736 8.67485 6.25736 12.12C6.25736 13.2985 6.58687 14.4481 7.21692 15.4427L7.36538 15.6806L6.73171 17.9834L9.10706 17.3635Z" fill="#011E6E"/>
<path d="M5.18195 19.5079L6.21754 15.7491C5.57663 14.65 5.23988 13.3995 5.23988 12.1238C5.2435 8.12358 8.51323 4.86938 12.5325 4.86938C14.4842 4.86938 16.3128 5.62617 17.6888 6.9956C19.0647 8.36503 19.8215 10.1885 19.8215 12.1274C19.8215 16.1275 16.5482 19.3817 12.5325 19.3817H12.5289C11.3086 19.3817 10.1101 19.0754 9.04552 18.4988L5.18195 19.5079Z" fill="#011E6E"/>
<path d="M4.9176 19.7708L5.98941 15.8788C5.32677 14.7364 4.97916 13.4426 4.98278 12.12C4.98278 7.97572 8.372 4.6062 12.5325 4.6062C14.553 4.6062 16.4504 5.38822 17.8734 6.8081C19.3001 8.22798 20.0858 10.1163 20.0822 12.1236C20.0822 16.268 16.693 19.6375 12.5289 19.6375H12.5253C11.2615 19.6375 10.0195 19.3204 8.91515 18.7221L4.9176 19.7708ZM9.10706 17.3635L9.33518 17.5005C10.2984 18.0698 11.4028 18.369 12.5289 18.3726H12.5325C15.9905 18.3726 18.8076 15.5724 18.8076 12.1272C18.8076 10.4587 18.1559 8.89107 16.9718 7.70904C15.7877 6.527 14.209 5.87833 12.5325 5.87833C9.07447 5.87472 6.25736 8.67485 6.25736 12.12C6.25736 13.2985 6.58687 14.4481 7.21692 15.4427L7.36538 15.6806L6.73171 17.9834L9.10706 17.3635Z" fill="#011E6E"/>
<path fill-rule="evenodd" clip-rule="evenodd" d="M10.6459 8.9776C10.5047 8.66407 10.3562 8.65687 10.2223 8.65326C10.1136 8.64966 9.9869 8.64966 9.86017 8.64966C9.73343 8.64966 9.53066 8.69651 9.35685 8.8839C9.18305 9.0713 8.69784 9.52537 8.69784 10.4515C8.69784 11.3741 9.37496 12.2678 9.4691 12.394C9.56325 12.5201 10.7763 14.4769 12.6918 15.2301C14.285 15.8572 14.6109 15.731 14.9549 15.6986C15.2989 15.6662 16.0701 15.2445 16.2294 14.8049C16.3851 14.3652 16.3851 13.9904 16.3381 13.9111C16.291 13.8319 16.1643 13.785 15.976 13.6913C15.7877 13.5976 14.8607 13.1435 14.6869 13.0787C14.5131 13.0174 14.3864 12.985 14.2633 13.1724C14.1365 13.3598 13.7744 13.7814 13.6658 13.9075C13.5572 14.0337 13.4449 14.0481 13.2566 13.9544C13.0683 13.8607 12.46 13.6625 11.7394 13.021C11.1782 12.5237 10.798 11.9075 10.6894 11.7201C10.5807 11.5327 10.6785 11.4318 10.7727 11.3381C10.8559 11.2552 10.9609 11.1182 11.0551 11.0101C11.1492 10.902 11.1818 10.8227 11.2434 10.6966C11.3049 10.5705 11.276 10.4623 11.2289 10.3687C11.1818 10.2786 10.8125 9.34879 10.6459 8.9776Z" fill="white"/>
</svg>
